<svg width="295" height="84" viewBox="0 0 295 84" fill="none" xmlns="http://www.w3.org/2000/svg">
<path d="M22.5304 32.3962C21.0923 32.8525 20.6129 32.8525 17.7367 36.0465C15.4357 38.6016 13.2626 47.4536 12.4636 51.5601L12.943 46.541L13.9017 41.0656C14.3811 38.3279 16.011 33.5825 22.5304 31.0273C30.6797 27.8333 30.6797 25.3111 30.6797 23.2705C30.6797 20.9891 29.721 15.9699 28.7623 13.2322C28.2829 11.1029 27.8035 6.29672 29.721 4.10656C32.1179 1.36886 34.5147 0 38.3497 0C42.1847 0 44.5815 1.82514 46.499 4.56284C48.033 6.75301 48.4165 11.255 48.4165 13.2322C48.2567 14.9053 47.7454 18.4339 46.9784 19.1639C46.2114 19.894 45.0609 19.7723 44.5815 19.6202C45.732 19.6202 46.3392 19.316 46.499 19.1639C48.033 16.9738 47.7773 12.776 47.4577 10.9508C47.4577 7.75683 45.5403 2.28142 40.2672 1.36885C36.0487 0.6388 32.757 2.8898 31.6385 4.10656C28.954 6.29672 29.5612 11.1029 30.2004 13.2322C31.1591 15.5137 32.5972 20.9891 32.1179 25.0956C31.6385 29.2022 23.9685 31.9399 22.5304 32.3962Z" fill="#1D1D1E"/>
<path d="M26.3655 60.2295C26.3655 53.8972 24.4487 49.3895 24.0055 48.1955C23.8405 48.9817 22.3911 50.9766 21.5718 52.0164L24.448 42.8907C26.749 49.0962 26.6851 57.0355 26.3655 60.2295Z" fill="#1D1D1E"/>
<path d="M51.7722 61.1421C49.4712 56.0317 51.7722 46.2368 53.2103 41.9781C55.5113 44.5333 57.0453 50.6475 57.5246 53.3852L53.6897 46.0847C52.1557 50.83 51.7722 58.1002 51.7722 61.1421Z" fill="#1D1D1E"/>
<path d="M36.9117 53.3852C40.7466 61.0508 38.5096 66.6175 36.9117 68.4426C41.8971 64.4273 39.6281 55.8188 37.8704 52.0164C29.817 37.4153 34.1952 30.4189 37.391 28.7459C34.3231 29.1109 32.5973 34.6776 32.118 37.4153C31.6386 40.153 32.118 43.8033 36.9117 53.3852Z" fill="#1D1D1E"/>
<path d="M53.2103 31.4836C59.7298 32.2137 62.9575 40.0009 63.7565 43.8033C63.7565 36.8677 59.9215 32.7004 58.004 31.4836C57.3649 31.0273 54.3608 29.6585 51.2928 29.6585C48.2248 29.6585 46.1795 28.898 45.061 28.2896C41.6095 26.8295 42.6641 22.51 43.6229 20.5328C41.7054 23.088 42.1176 25.8163 42.6641 27.377C43.1435 28.7459 46.6908 30.7535 53.2103 31.4836Z" fill="#1D1D1E"/>
<path d="M69.0295 21.4453C71.9058 22.3579 75.2614 26.9207 76.6995 29.6584L78.1376 31.4836C79.6716 24.9131 74.3026 19.6202 71.4264 18.2513C68.7419 17.5213 65.8337 15.0573 64.7152 13.6885C60.4967 26.0994 69.9883 31.9399 75.2614 33.3087C76.4118 28.1983 71.4264 22.8926 69.0295 21.4453Z" fill="#065B5E"/>
<path d="M86.7663 15.5136C87.1498 14.0535 86.6065 11.5592 86.2869 10.4945C86.2869 10.8595 84.689 12.1675 83.8901 12.7759C82.7396 13.141 81.1736 14.449 80.5345 15.0573C78.2335 17.6125 78.617 20.3807 79.0963 21.4453C79.8633 17.7951 82.2922 15.9699 83.4107 15.5136C81.1097 18.0688 80.5345 20.8369 80.5345 21.9016C84.8488 20.5328 86.2869 17.3388 86.7663 15.5136Z" fill="#065B5E"/>
<path d="M92.5518 18.8551C92.541 18.8054 92.5299 18.7563 92.5187 18.7076C92.5577 18.7447 92.5673 18.7945 92.5518 18.8551C93.6293 23.7738 93.1823 33.5934 82.9313 34.6776C83.2509 32.5482 84.8488 27.6508 88.6838 25.0956C86.1271 26.6165 81.0138 30.571 81.0138 34.2213C80.6943 32.5482 80.5345 28.5634 82.4519 26.0082C84.3694 23.453 87.725 21.9016 89.1631 21.4453C90.3118 20.762 92.415 19.3911 92.5518 18.8551Z" fill="#065B5E"/>
<path d="M65.1945 63.8897C61.8355 67.4308 57.2613 70.5726 52.7309 72.5591C48.2004 74.5457 42.7615 75.1732 37.786 75.2869C32.8104 75.4005 27.8624 74.5428 23.2395 72.7654C18.6165 70.9879 14.4141 68.3273 10.885 64.9437C7.35582 61.5601 4.57279 57.5232 2.70324 53.0759C0.833686 48.6285 -0.08378 43.8626 0.00600773 39.0646C0.0957955 34.2666 1.19098 29.5357 3.22572 25.1563C5.26045 20.7769 8.8102 16.9572 12.4637 13.6985C9.19418 16.6147 6.23183 21.9016 4.79372 26.0082C3.3556 30.1147 3.43595 34.7709 3.3556 39.0646C3.27525 43.3583 4.62547 47.6909 6.29854 51.6708C8.14932 55.2203 10.7435 59.0366 13.9018 62.0646C17.06 65.0926 20.1336 67.4732 24.6764 69.2909C28.2829 70.734 32.9427 72.3465 37.391 72.5591C41.7053 72.7654 45.5403 72.5591 49.8546 71.6466C54.169 70.734 62.1886 67.0586 65.1945 63.8897Z" fill="#1D1D1E"/>
<path d="M78.1376 31.0273C81.0715 35.1599 81.4931 42.209 81.4931 47.4535C81.4931 51.1038 80.3598 55.5023 78.6155 60.0943C76.8712 64.6863 73.9875 68.9077 70.1588 72.4743C66.33 76.0408 61.645 78.8696 56.4194 80.77C51.1938 82.6705 45.5489 83.5986 39.865 83.4917C34.1812 83.3848 28.5903 82.2454 23.469 80.1504C18.3478 78.0553 13.815 75.0532 10.1762 71.3462C6.53734 67.6393 3.87688 63.3136 2.37402 58.6605C3.63674 62.57 12.4702 70.2677 13.9018 71.3462C17.7367 74.2354 20.6244 75.3517 24.9273 77.112C29.2302 78.8723 35.0894 79.3036 39.865 79.3934C44.6407 79.4832 50.1094 78.7088 54.5 77.112C58.8906 75.5152 62.783 72.4966 66 69.5C69.217 66.5033 71.4263 63.4235 73.8232 59.3169C75.7407 55.6666 76.7009 51.5601 77.6582 47.4535C78.6155 43.347 79.1645 33.1307 76.6994 29.6584L78.1376 31.0273Z" fill="#065B5E"/>
<ellipse cx="37.8704" cy="34.6776" rx="0.479372" ry="0.456284" fill="#1D1D1E"/>
<ellipse cx="37.1513" cy="36.7309" rx="0.719057" ry="0.684426" fill="#1D1D1E"/>
<ellipse cx="37.2472" cy="38.6473" rx="0.814932" ry="0.775683" fill="#1D1D1E"/>
<ellipse cx="37.391" cy="41.5219" rx="0.958743" ry="0.912568" fill="#1D1D1E"/>
<ellipse cx="38.3497" cy="44.2596" rx="0.958743" ry="0.912568" fill="#1D1D1E"/>
<ellipse cx="39.2126" cy="46.906" rx="0.862869" ry="0.821311" fill="#1D1D1E"/>
<ellipse cx="40.3631" cy="48.9137" rx="1.05462" ry="1.00383" fill="#1D1D1E"/>
<ellipse cx="42.2806" cy="51.6513" rx="1.05462" ry="1.00383" fill="#1D1D1E"/>
<ellipse cx="44.1022" cy="54.2978" rx="0.958743" ry="0.912568" fill="#1D1D1E"/>
<ellipse cx="45.0609" cy="57.0355" rx="0.958743" ry="0.912568" fill="#1D1D1E"/>
<ellipse cx="45.8758" cy="59.6363" rx="0.814932" ry="0.775683" fill="#1D1D1E"/>
<ellipse cx="45.78" cy="62.2828" rx="0.719057" ry="0.684426" fill="#1D1D1E"/>
<ellipse cx="44.5815" cy="64.7923" rx="0.479372" ry="0.456284" fill="#1D1D1E"/>
<path d="M115.878 39.288C113.382 39.288 111.238 38.44 109.446 36.744C107.654 35.032 106.758 32.928 106.758 30.432C106.758 27.92 107.542 25.816 109.11 24.12C110.678 22.408 112.686 21.552 115.134 21.552C117.054 21.552 118.998 21.872 120.966 22.512L120.654 23.472C118.734 22.896 116.894 22.608 115.134 22.608C113.038 22.608 111.326 23.36 109.998 24.864C108.67 26.368 108.006 28.208 108.006 30.384C108.006 32.56 108.774 34.416 110.31 35.952C111.862 37.472 113.718 38.232 115.878 38.232C117.766 38.232 119.398 37.944 120.774 37.368L121.134 38.184C120.526 38.536 119.726 38.808 118.734 39C117.758 39.192 116.806 39.288 115.878 39.288ZM128.504 24.096C127.64 24.096 126.936 24.304 126.392 24.72C125.848 25.136 125.576 25.72 125.576 26.472C125.576 27.336 125.936 28.112 126.656 28.8C127.168 29.296 127.824 29.824 128.624 30.384C129.44 30.928 130 31.32 130.304 31.56C130.608 31.8 130.976 32.128 131.408 32.544C132.192 33.328 132.584 34.232 132.584 35.256C132.584 36.584 132.136 37.592 131.24 38.28C130.36 38.952 129.12 39.288 127.52 39.288C125.936 39.288 124.608 38.872 123.536 38.04L124.112 37.2C125.2 37.936 126.352 38.304 127.568 38.304C128.784 38.304 129.728 38.048 130.4 37.536C131.088 37.024 131.432 36.304 131.432 35.376C131.432 34.576 131.088 33.84 130.4 33.168C129.92 32.688 129.272 32.168 128.456 31.608C127.656 31.048 127.096 30.648 126.776 30.408C126.456 30.152 126.08 29.816 125.648 29.4C124.832 28.584 124.424 27.64 124.424 26.568C124.424 25.496 124.8 24.656 125.552 24.048C126.32 23.44 127.376 23.136 128.72 23.136C130.064 23.136 131.272 23.4 132.344 23.928L131.936 24.816C130.944 24.336 129.8 24.096 128.504 24.096ZM143.897 39.24C141.673 39.24 139.809 38.464 138.305 36.912C136.801 35.36 136.049 33.464 136.049 31.224C136.049 28.968 136.801 27.064 138.305 25.512C139.809 23.96 141.673 23.184 143.897 23.184C146.121 23.184 147.985 23.96 149.489 25.512C150.993 27.064 151.745 28.968 151.745 31.224C151.745 33.464 150.993 35.36 149.489 36.912C147.985 38.464 146.121 39.24 143.897 39.24ZM143.897 24.168C141.977 24.168 140.377 24.848 139.097 26.208C137.833 27.568 137.201 29.24 137.201 31.224C137.201 33.192 137.833 34.856 139.097 36.216C140.377 37.56 141.977 38.232 143.897 38.232C145.833 38.232 147.433 37.56 148.697 36.216C149.961 34.856 150.593 33.192 150.593 31.224C150.593 29.24 149.961 27.568 148.697 26.208C147.433 24.848 145.833 24.168 143.897 24.168ZM156.556 39V23.328H157.084L167.308 35.088C167.676 35.504 168.012 35.92 168.316 36.336C168.636 36.736 168.804 36.944 168.82 36.96C168.788 36.576 168.772 35.824 168.772 34.704V23.424H169.876V39.096H169.348L158.932 27.144L157.612 25.536C157.644 25.856 157.66 26.608 157.66 27.792V39H156.556ZM185.09 23.424L178.442 30.936C181.066 34.12 182.858 36.136 183.818 36.984C184.794 37.832 185.762 38.312 186.722 38.424L186.698 39.168C185.802 39.152 185.074 39.024 184.514 38.784C183.954 38.528 183.458 38.192 183.026 37.776C182.594 37.36 181.666 36.344 180.242 34.728C178.834 33.096 177.778 31.848 177.074 30.984L183.77 23.424H185.09ZM176.738 23.424V39H175.634V23.424H176.738ZM189.996 33.6L187.764 39H186.636L193.164 23.328H193.812L200.388 39H199.164L196.908 33.6H189.996ZM193.428 25.104C193.188 25.824 192.972 26.424 192.78 26.904L190.38 32.664H196.524L194.148 26.928C193.78 26.032 193.54 25.424 193.428 25.104ZM212.484 21.888C213.732 21.792 215.004 21.744 216.3 21.744C217.612 21.744 218.74 22.064 219.684 22.704C220.644 23.344 221.124 24.272 221.124 25.488C221.124 26.4 220.868 27.248 220.356 28.032C219.86 28.816 219.26 29.408 218.556 29.808C219.692 30.16 220.644 30.768 221.412 31.632C222.18 32.496 222.564 33.464 222.564 34.536C222.564 36.04 222.084 37.184 221.124 37.968C220.18 38.752 218.876 39.144 217.212 39.144C215.564 39.144 213.988 39.08 212.484 38.952V21.888ZM217.356 38.112C218.524 38.112 219.484 37.792 220.236 37.152C220.988 36.496 221.364 35.664 221.364 34.656C221.364 33.648 220.996 32.776 220.26 32.04C219.54 31.304 218.548 30.8 217.284 30.528C216.692 30.4 216.004 30.336 215.22 30.336C214.452 30.336 213.924 30.336 213.636 30.336V37.992C214.34 38.072 215.58 38.112 217.356 38.112ZM219.972 25.464C219.972 24.584 219.604 23.904 218.868 23.424C218.148 22.944 217.332 22.704 216.42 22.704C215.524 22.704 214.596 22.736 213.636 22.8V29.352C213.844 29.352 214.236 29.352 214.812 29.352C215.388 29.352 216.236 29.4 217.356 29.496C218.076 29.112 218.692 28.56 219.204 27.84C219.716 27.12 219.972 26.328 219.972 25.464ZM227.29 39V23.424H234.562V24.384H228.394V30.048H233.962V30.984H228.394V37.992H234.802V39H227.29ZM239.22 39V23.328H239.748L249.972 35.088C250.34 35.504 250.676 35.92 250.98 36.336C251.3 36.736 251.468 36.944 251.484 36.96C251.452 36.576 251.436 35.824 251.436 34.704V23.424H252.54V39.096H252.012L241.596 27.144L240.276 25.536C240.308 25.856 240.324 26.608 240.324 27.792V39H239.22ZM270.418 38.232C269.218 38.904 267.546 39.24 265.402 39.24C263.274 39.24 261.394 38.472 259.762 36.936C258.146 35.4 257.338 33.496 257.338 31.224C257.338 28.936 258.042 27.024 259.45 25.488C260.874 23.952 262.706 23.184 264.946 23.184C266.754 23.184 268.522 23.464 270.25 24.024L269.962 24.936C268.298 24.424 266.578 24.168 264.802 24.168C263.026 24.168 261.53 24.848 260.314 26.208C259.114 27.552 258.514 29.208 258.514 31.176C258.514 33.128 259.21 34.792 260.602 36.168C262.01 37.544 263.634 38.232 265.474 38.232C267.314 38.232 268.842 37.976 270.058 37.464L270.418 38.232ZM274.353 39V23.424H281.625V24.384H275.457V30.048H281.025V30.984H275.457V37.992H281.865V39H274.353Z" fill="#374151"/>
<path d="M128.633 67.2461C127.328 67.2461 126.195 66.9648 125.234 66.4023C124.273 65.8398 123.527 65.0391 122.996 64C122.473 62.9609 122.211 61.7422 122.211 60.3438V60.332C122.211 58.918 122.473 57.6953 122.996 56.6641C123.52 55.625 124.262 54.8281 125.223 54.2734C126.191 53.7109 127.328 53.4297 128.633 53.4297C129.648 53.4297 130.562 53.6133 131.375 53.9805C132.195 54.3477 132.871 54.8594 133.402 55.5156C133.941 56.1719 134.285 56.9336 134.434 57.8008L134.445 57.8828H132.406L132.359 57.7305C132.203 57.1992 131.953 56.7422 131.609 56.3594C131.266 55.9766 130.844 55.6836 130.344 55.4805C129.844 55.2695 129.273 55.1641 128.633 55.1641C127.758 55.1641 126.992 55.375 126.336 55.7969C125.688 56.2188 125.184 56.8164 124.824 57.5898C124.473 58.3633 124.297 59.2734 124.297 60.3203V60.3438C124.297 61.3828 124.477 62.293 124.836 63.0742C125.195 63.8477 125.699 64.4492 126.348 64.8789C126.996 65.3008 127.758 65.5117 128.633 65.5117C129.266 65.5117 129.832 65.4102 130.332 65.207C130.832 65.0039 131.254 64.7109 131.598 64.3281C131.949 63.9375 132.211 63.4648 132.383 62.9102L132.406 62.8398H134.445L134.434 62.9219C134.285 63.7891 133.945 64.5469 133.414 65.1953C132.883 65.8359 132.207 66.3398 131.387 66.707C130.574 67.0664 129.656 67.2461 128.633 67.2461ZM141.359 67.2461C140.328 67.2461 139.422 67.0938 138.641 66.7891C137.859 66.4844 137.242 66.0508 136.789 65.4883C136.336 64.9258 136.078 64.2617 136.016 63.4961L136.004 63.3672H138.008L138.02 63.4844C138.09 63.9062 138.273 64.2695 138.57 64.5742C138.867 64.8789 139.262 65.1172 139.754 65.2891C140.246 65.4531 140.812 65.5352 141.453 65.5352C142.086 65.5352 142.637 65.4492 143.105 65.2773C143.574 65.0977 143.934 64.8477 144.184 64.5273C144.441 64.207 144.57 63.8359 144.57 63.4141V63.4023C144.57 62.8477 144.363 62.4062 143.949 62.0781C143.535 61.75 142.859 61.4883 141.922 61.293L140.398 60.9766C139.016 60.6953 137.992 60.25 137.328 59.6406C136.672 59.0234 136.344 58.2266 136.344 57.25V57.2383C136.344 56.4883 136.559 55.8281 136.988 55.2578C137.418 54.6875 138.012 54.2422 138.77 53.9219C139.527 53.5938 140.395 53.4297 141.371 53.4297C142.332 53.4297 143.18 53.5898 143.914 53.9102C144.648 54.2227 145.23 54.6602 145.66 55.2227C146.09 55.7773 146.328 56.418 146.375 57.1445L146.387 57.2852H144.395L144.371 57.168C144.27 56.5352 143.949 56.0391 143.41 55.6797C142.871 55.3203 142.18 55.1406 141.336 55.1406C140.75 55.1406 140.238 55.2227 139.801 55.3867C139.363 55.5508 139.02 55.7852 138.77 56.0898C138.527 56.3945 138.406 56.7539 138.406 57.168C138.406 57.6836 138.613 58.1055 139.027 58.4336C139.449 58.7617 140.105 59.0195 140.996 59.207L142.531 59.5234C143.984 59.8203 145.031 60.2656 145.672 60.8594C146.32 61.4453 146.645 62.2461 146.645 63.2617V63.2734C146.645 64.0859 146.43 64.7891 146 65.3828C145.578 65.9766 144.973 66.4375 144.184 66.7656C143.395 67.0859 142.453 67.2461 141.359 67.2461ZM154.824 67.2461C153.488 67.2461 152.332 66.9648 151.355 66.4023C150.379 65.8398 149.625 65.043 149.094 64.0117C148.562 62.9727 148.297 61.7461 148.297 60.332V60.3203C148.297 58.9141 148.562 57.6953 149.094 56.6641C149.625 55.625 150.379 54.8281 151.355 54.2734C152.332 53.7109 153.488 53.4297 154.824 53.4297C156.16 53.4297 157.312 53.7109 158.281 54.2734C159.258 54.8359 160.012 55.6328 160.543 56.6641C161.074 57.6953 161.34 58.9141 161.34 60.3203V60.332C161.34 61.7461 161.074 62.9727 160.543 64.0117C160.02 65.043 159.27 65.8398 158.293 66.4023C157.324 66.9648 156.168 67.2461 154.824 67.2461ZM154.836 65.5117C155.75 65.5117 156.535 65.2969 157.191 64.8672C157.855 64.4375 158.367 63.8359 158.727 63.0625C159.086 62.2891 159.266 61.3789 159.266 60.332V60.3086C159.266 59.2539 159.082 58.3438 158.715 57.5781C158.355 56.8047 157.844 56.207 157.18 55.7852C156.523 55.3633 155.742 55.1523 154.836 55.1523C153.93 55.1523 153.141 55.3633 152.469 55.7852C151.805 56.207 151.289 56.8047 150.922 57.5781C150.562 58.3438 150.383 59.2539 150.383 60.3086V60.332C150.383 61.3945 150.562 62.3125 150.922 63.0859C151.289 63.8594 151.805 64.457 152.469 64.8789C153.141 65.3008 153.93 65.5117 154.836 65.5117ZM163.684 67V53.6758H165.582L174.195 65.4414L172.086 63.7305H173V53.6758H175.016V67H173.117L164.516 55.2227L166.613 56.9336H165.699V67H163.684ZM181.367 67V55.3633H177.031V53.6758H187.754V55.3633H183.418V67H181.367ZM191.656 62.6406L191.633 60.0859H191.879L197.656 53.6758H200.105L194.598 59.6758L194.246 59.8398L191.656 62.6406ZM189.77 67V53.6758H191.809V67H189.77ZM198.031 67L193.086 60.625L194.539 59.2891L200.586 67H198.031ZM207.723 67.2461C206.387 67.2461 205.23 66.9648 204.254 66.4023C203.277 65.8398 202.523 65.043 201.992 64.0117C201.461 62.9727 201.195 61.7461 201.195 60.332V60.3203C201.195 58.9141 201.461 57.6953 201.992 56.6641C202.523 55.625 203.277 54.8281 204.254 54.2734C205.23 53.7109 206.387 53.4297 207.723 53.4297C209.059 53.4297 210.211 53.7109 211.18 54.2734C212.156 54.8359 212.91 55.6328 213.441 56.6641C213.973 57.6953 214.238 58.9141 214.238 60.3203V60.332C214.238 61.7461 213.973 62.9727 213.441 64.0117C212.918 65.043 212.168 65.8398 211.191 66.4023C210.223 66.9648 209.066 67.2461 207.723 67.2461ZM207.734 65.5117C208.648 65.5117 209.434 65.2969 210.09 64.8672C210.754 64.4375 211.266 63.8359 211.625 63.0625C211.984 62.2891 212.164 61.3789 212.164 60.332V60.3086C212.164 59.2539 211.98 58.3438 211.613 57.5781C211.254 56.8047 210.742 56.207 210.078 55.7852C209.422 55.3633 208.641 55.1523 207.734 55.1523C206.828 55.1523 206.039 55.3633 205.367 55.7852C204.703 56.207 204.188 56.8047 203.82 57.5781C203.461 58.3438 203.281 59.2539 203.281 60.3086V60.332C203.281 61.3945 203.461 62.3125 203.82 63.0859C204.188 63.8594 204.703 64.457 205.367 64.8789C206.039 65.3008 206.828 65.5117 207.734 65.5117ZM220.016 67L214.977 53.6758H217.156L221.082 64.7734H221.141L225.066 53.6758H227.246L222.207 67H220.016ZM227.891 67L233 53.6758H234.617V55.832H234.043L230.035 67H227.891ZM230.328 63.3203L230.938 61.75H237.242L237.852 63.3203H230.328ZM238.121 67L234.113 55.832V53.6758H235.156L240.266 67H238.121ZM234.699 52.2578H233.117L235.039 48.8008H237.184L234.699 52.2578ZM247.906 67.2461C246.602 67.2461 245.469 66.9648 244.508 66.4023C243.547 65.8398 242.801 65.0391 242.27 64C241.746 62.9609 241.484 61.7422 241.484 60.3438V60.332C241.484 58.918 241.746 57.6953 242.27 56.6641C242.793 55.625 243.535 54.8281 244.496 54.2734C245.465 53.7109 246.602 53.4297 247.906 53.4297C248.922 53.4297 249.836 53.6133 250.648 53.9805C251.469 54.3477 252.145 54.8594 252.676 55.5156C253.215 56.1719 253.559 56.9336 253.707 57.8008L253.719 57.8828H251.68L251.633 57.7305C251.477 57.1992 251.227 56.7422 250.883 56.3594C250.539 55.9766 250.117 55.6836 249.617 55.4805C249.117 55.2695 248.547 55.1641 247.906 55.1641C247.031 55.1641 246.266 55.375 245.609 55.7969C244.961 56.2188 244.457 56.8164 244.098 57.5898C243.746 58.3633 243.57 59.2734 243.57 60.3203V60.3438C243.57 61.3828 243.75 62.293 244.109 63.0742C244.469 63.8477 244.973 64.4492 245.621 64.8789C246.27 65.3008 247.031 65.5117 247.906 65.5117C248.539 65.5117 249.105 65.4102 249.605 65.207C250.105 65.0039 250.527 64.7109 250.871 64.3281C251.223 63.9375 251.484 63.4648 251.656 62.9102L251.68 62.8398H253.719L253.707 62.9219C253.559 63.7891 253.219 64.5469 252.688 65.1953C252.156 65.8359 251.48 66.3398 250.66 66.707C249.848 67.0664 248.93 67.2461 247.906 67.2461ZM260.633 67.2461C259.602 67.2461 258.695 67.0938 257.914 66.7891C257.133 66.4844 256.516 66.0508 256.062 65.4883C255.609 64.9258 255.352 64.2617 255.289 63.4961L255.277 63.3672H257.281L257.293 63.4844C257.363 63.9062 257.547 64.2695 257.844 64.5742C258.141 64.8789 258.535 65.1172 259.027 65.2891C259.52 65.4531 260.086 65.5352 260.727 65.5352C261.359 65.5352 261.91 65.4492 262.379 65.2773C262.848 65.0977 263.207 64.8477 263.457 64.5273C263.715 64.207 263.844 63.8359 263.844 63.4141V63.4023C263.844 62.8477 263.637 62.4062 263.223 62.0781C262.809 61.75 262.133 61.4883 261.195 61.293L259.672 60.9766C258.289 60.6953 257.266 60.25 256.602 59.6406C255.945 59.0234 255.617 58.2266 255.617 57.25V57.2383C255.617 56.4883 255.832 55.8281 256.262 55.2578C256.691 54.6875 257.285 54.2422 258.043 53.9219C258.801 53.5938 259.668 53.4297 260.645 53.4297C261.605 53.4297 262.453 53.5898 263.188 53.9102C263.922 54.2227 264.504 54.6602 264.934 55.2227C265.363 55.7773 265.602 56.418 265.648 57.1445L265.66 57.2852H263.668L263.645 57.168C263.543 56.5352 263.223 56.0391 262.684 55.6797C262.145 55.3203 261.453 55.1406 260.609 55.1406C260.023 55.1406 259.512 55.2227 259.074 55.3867C258.637 55.5508 258.293 55.7852 258.043 56.0898C257.801 56.3945 257.68 56.7539 257.68 57.168C257.68 57.6836 257.887 58.1055 258.301 58.4336C258.723 58.7617 259.379 59.0195 260.27 59.207L261.805 59.5234C263.258 59.8203 264.305 60.2656 264.945 60.8594C265.594 61.4453 265.918 62.2461 265.918 63.2617V63.2734C265.918 64.0859 265.703 64.7891 265.273 65.3828C264.852 65.9766 264.246 66.4375 263.457 66.7656C262.668 67.0859 261.727 67.2461 260.633 67.2461Z" fill="#374151"/>
</svg>
