<svg width="550" height="500" viewBox="0 0 550 500" fill="none" xmlns="http://www.w3.org/2000/svg">
<path d="M408.444 128.415C425.462 133.88 445.317 161.202 453.826 177.596L462.336 188.525C471.412 149.18 439.644 117.486 422.626 109.29C406.742 104.918 389.534 90.164 382.916 81.9672C357.955 156.284 414.116 191.257 445.317 199.454C452.124 168.852 422.626 137.082 408.444 128.415Z" fill="#0A6165"/>
<path d="M513.391 92.8962C515.66 84.153 512.446 69.2168 510.555 62.8416C510.555 65.0273 501.1 72.8598 496.373 76.5028C489.565 78.6885 480.3 86.521 476.518 90.164C462.903 105.465 465.172 122.04 468.008 128.415C472.547 106.557 486.918 95.6284 493.536 92.8962C479.921 108.197 476.518 124.772 476.518 131.148C502.045 122.951 510.555 103.825 513.391 92.8962Z" fill="#0A6165"/>
<path d="M547.624 112.905C547.559 112.608 547.494 112.313 547.428 112.022C547.658 112.244 547.715 112.542 547.624 112.905C553.999 142.358 551.354 201.158 490.7 207.65C492.591 194.9 502.045 165.574 524.737 150.273C509.609 159.381 479.354 183.06 479.354 204.918C477.463 194.9 476.518 171.038 487.863 155.738C499.209 140.437 519.064 131.148 527.573 128.415C534.369 124.324 546.814 116.114 547.624 112.905Z" fill="#0A6165"/>
<path d="M462.336 185.792C479.695 210.538 482.191 252.749 482.191 284.153C482.191 306.011 475.484 332.35 465.164 359.846C454.843 387.343 437.78 412.621 415.126 433.978C392.471 455.334 364.75 472.273 333.83 483.653C302.911 495.033 269.511 500.591 235.879 499.951C202.248 499.31 169.167 492.488 138.865 479.943C108.563 467.397 81.743 449.42 60.2121 427.223C38.6813 405.026 22.9395 379.123 14.0471 351.261C21.5185 374.671 73.7859 420.765 82.2561 427.223C104.947 444.524 122.033 451.208 147.494 461.749C172.954 472.289 207.622 474.872 235.879 475.41C264.137 475.948 296.495 471.31 322.474 461.749C348.453 452.187 371.484 434.112 390.518 416.168C409.553 398.224 422.626 379.782 436.808 355.191C448.154 333.333 453.835 308.743 459.499 284.153C465.164 259.563 468.412 198.388 453.826 177.596L462.336 185.792Z" fill="#0A6165"/>
<path d="M133.311 193.989C124.802 196.721 121.965 196.721 104.947 215.847C91.332 231.148 78.4736 284.153 73.7462 308.743L76.5826 278.689L82.2555 245.902C85.0919 229.508 94.7357 201.093 133.311 185.792C181.53 166.667 181.53 151.563 181.53 139.344C181.53 125.683 175.857 95.6284 170.184 79.235C167.348 66.4845 164.511 37.7049 175.857 24.5902C190.039 8.19674 204.221 0 226.913 0C249.604 0 263.786 10.929 275.132 27.3224C284.208 40.4372 286.477 67.3953 286.477 79.235C285.532 89.2532 282.506 110.383 277.968 114.754C273.43 119.126 266.622 118.397 263.786 117.486C270.593 117.486 274.186 115.665 275.132 114.754C284.208 101.639 282.695 76.5027 280.804 65.5738C280.804 46.4481 269.459 13.6612 238.258 8.19673C213.298 3.82515 193.821 17.3042 187.203 24.5902C171.319 37.7049 174.912 66.4845 178.694 79.235C184.366 92.8962 192.876 125.683 190.039 150.273C187.203 174.863 141.82 191.257 133.311 193.989Z" fill="#002E33"/>
<path d="M156.003 360.656C156.003 322.738 144.662 295.745 142.039 288.596C141.063 293.303 132.486 305.249 127.639 311.475L144.657 256.83C158.272 293.989 157.894 341.53 156.003 360.656Z" fill="#002E33"/>
<path d="M306.333 366.12C292.718 335.519 306.333 276.867 314.842 251.366C328.457 266.666 337.533 303.278 340.37 319.672L317.679 275.956C308.602 304.371 306.333 347.905 306.333 366.12Z" fill="#002E33"/>
<path d="M218.404 319.672C241.095 365.574 227.859 398.907 218.404 409.836C247.903 385.792 234.477 334.244 224.077 311.475C176.425 224.044 202.331 182.149 221.24 172.131C203.087 174.317 192.876 207.65 190.04 224.043C187.203 240.437 190.04 262.295 218.404 319.672Z" fill="#002E33"/>
<path d="M314.842 188.524C353.417 192.896 372.516 239.526 377.243 262.295C377.243 220.765 354.552 195.81 343.206 188.524C339.424 185.792 321.65 177.595 303.496 177.595C285.343 177.595 273.241 173.042 266.623 169.399C246.201 160.655 252.441 134.79 258.114 122.951C246.768 138.251 249.207 154.588 252.441 163.934C255.277 172.131 276.267 184.153 314.842 188.524Z" fill="#002E33"/>
<path d="M385.752 382.573C365.877 403.777 338.812 422.59 312.006 434.486C285.199 446.382 253.017 450.139 223.577 450.819C194.137 451.5 164.86 446.364 137.507 435.721C110.153 425.077 85.2876 409.146 64.4058 388.884C43.524 368.623 27.057 344.45 15.9949 317.819C4.93287 291.189 -0.495722 262.65 0.0355474 233.92C0.566816 205.189 7.04697 176.86 19.0864 150.636C31.1258 124.412 52.1295 101.54 73.7468 82.0267C54.4014 99.489 36.8734 131.147 28.3641 155.737C19.8549 180.328 20.3303 208.209 19.8549 233.92C19.3795 259.631 27.3687 285.574 37.2681 309.406C48.219 330.661 63.5689 353.512 82.256 371.644C100.943 389.776 119.129 404.031 146.009 414.915C167.348 423.557 194.92 433.213 221.24 434.486C246.768 435.721 269.459 434.486 294.987 429.021C320.515 423.557 367.966 401.548 385.752 382.573Z" fill="#002E33"/>
<ellipse cx="224.077" cy="207.65" rx="2.83641" ry="2.73224" fill="#002E33"/>
<ellipse cx="219.822" cy="219.945" rx="4.25462" ry="4.09836" fill="#002E33"/>
<ellipse cx="220.39" cy="231.421" rx="4.8219" ry="4.64481" fill="#002E33"/>
<ellipse cx="221.24" cy="248.634" rx="5.67283" ry="5.46448" fill="#002E33"/>
<ellipse cx="226.913" cy="265.027" rx="5.67283" ry="5.46448" fill="#002E33"/>
<ellipse cx="232.019" cy="280.874" rx="5.10555" ry="4.91803" fill="#002E33"/>
<ellipse cx="238.826" cy="292.896" rx="6.24011" ry="6.01093" fill="#002E33"/>
<ellipse cx="250.172" cy="309.289" rx="6.24011" ry="6.01093" fill="#002E33"/>
<ellipse cx="260.95" cy="325.137" rx="5.67283" ry="5.46448" fill="#002E33"/>
<ellipse cx="266.623" cy="341.53" rx="5.67283" ry="5.46448" fill="#002E33"/>
<ellipse cx="271.445" cy="357.104" rx="4.8219" ry="4.64481" fill="#002E33"/>
<ellipse cx="270.878" cy="372.951" rx="4.25462" ry="4.09836" fill="#002E33"/>
<ellipse cx="263.787" cy="387.978" rx="2.83641" ry="2.73224" fill="#002E33"/>
</svg>
